<?xml version="1.0" encoding="UTF-8" standalone="no"?>
<svg
   xmlns:dc="http://purl.org/dc/elements/1.1/"
   xmlns:cc="http://creativecommons.org/ns#"
   xmlns:rdf="http://www.w3.org/1999/02/22-rdf-syntax-ns#"
   xmlns:svg="http://www.w3.org/2000/svg"
   xmlns="http://www.w3.org/2000/svg"
   viewBox="0 0 1466.6667 1066.6667"
   height="1066.6667"
   width="1466.6667"
   xml:space="preserve"
   id="svg2"
   version="1.1"><metadata
     id="metadata8"><rdf:RDF><cc:Work
         rdf:about=""><dc:format>image/svg+xml</dc:format><dc:type
           rdf:resource="http://purl.org/dc/dcmitype/StillImage" /></cc:Work></rdf:RDF></metadata><defs
     id="defs6" /><g
     transform="matrix(1.3333333,0,0,1.3333333,0,-2.1333331e-5)"
     id="g10"><g
       id="g12"><path
         id="path14"
         style="fill:#ffffff;fill-opacity:1;fill-rule:nonzero;stroke:none"
         d="M 0,0 H 1100 V 800 H 0 Z" /><path
         id="path16"
         style="fill:#f7f7f7;fill-opacity:1;fill-rule:nonzero;stroke:none"
         d="m 518.848,683.668 c -27.813,0.062 -55.625,0.602 -83.391,3.082 -10.469,0.938 -20.719,2.992 -31.211,3.824 -20.957,1.656 -41.543,4.75 -62.574,6.176 -16.938,1.148 -33.945,1.828 -50.832,3.285 -15.836,1.367 -33.363,1.051 -49.074,-1.207 -11.633,-1.672 -23.317,-2.609 -34.754,-5.297 -12.793,-3.004 -26.692,-5.148 -40.02,-5.07 -19.008,0.109 -37.515,0.121 -55.707,5.426 -6.387,1.859 -14.203,4.922 -19.051,8.828 -11.101,8.941 -12.601,31.254 -1.519,40.527 18.668,15.613 58.508,21.738 84.676,22.028 28.671,0.316 56.523,-1.395 85.238,-2.399 26.683,-0.933 53.297,-2.266 80.023,-2.219 54.586,0.098 109.176,0 163.664,-2.929 51.192,-2.75 102.512,-1.805 153.817,-1.805 52.609,0 104.863,0.328 157.094,5.949 22.757,2.445 45.941,3.305 68.812,5.02 20.484,1.535 40.168,-0.032 60.57,-1.449 17.129,-1.196 34.149,-4.731 49.711,-10.708 12.321,-4.726 34.282,-19.421 38.059,-30.714 10.59,-31.657 -149.266,-30.895 -173.809,-30.825 -27.457,0.079 -55.132,0.805 -82.57,-0.035 -11.539,-0.351 -22.91,-2.168 -34.176,-4.152 -11.219,-1.977 -22.523,-1.477 -33.898,-2.305 -47.446,-3.469 -95,-2.961 -142.594,-2.961 -15.488,0 -30.988,-0.109 -46.484,-0.07" /><path
         id="path18"
         style="fill:#c8d6a1;fill-opacity:1;fill-rule:nonzero;stroke:none"
         d="m 935.609,361.996 -25.773,39.566 -16.781,32.043 6.14,12.426 22.321,-6.246 14.093,-77.789" /><path
         id="path20"
         style="fill:#5bbcb9;fill-opacity:1;fill-rule:nonzero;stroke:none"
         d="m 966.492,501.723 v 20.035 l -26.711,86.816 6.68,90.156 -16.695,3.34 -26.715,-110.191 1.023,-32.422 12.332,-66.117 50.086,8.383" /><path
         id="path22"
         style="fill:#1a3151;fill-opacity:1;fill-rule:nonzero;stroke:none"
         d="m 931.957,700.355 -12.746,13.493 3.684,6.836 26.296,-12.625 -4.843,-9.993 -12.391,2.289" /><path
         id="path24"
         style="fill:#1a3151;fill-opacity:1;fill-rule:nonzero;stroke:none"
         d="m 972.371,706.516 -15.711,9.879 1.856,7.539 28.617,-5.653 -2.192,-10.886 -12.57,-0.879" /><path
         id="path26"
         style="fill:#c8d6a1;fill-opacity:1;fill-rule:nonzero;stroke:none"
         d="m 935.523,361.895 39.743,-15.766 c 0,0 14.125,35.082 30.183,91.277 16.051,56.196 -7.461,127.731 -7.461,127.731 0,0 -91.043,-21.641 -109.222,-25.207 l 22.804,-102.723 23.953,-75.312" /><path
         id="path28"
         style="fill:#5bbcb9;fill-opacity:1;fill-rule:nonzero;stroke:none"
         d="m 945.305,525.445 26.84,183.649 h 12.203 l 7.703,-100.172 16.699,-100.172 -63.445,16.695" /><path
         id="path30"
         style="fill:#efbfa5;fill-opacity:1;fill-rule:nonzero;stroke:none"
         d="m 934.207,306.762 c 10.82,0.797 20.941,-8.09 31.59,-5.883 6.926,1.433 12.391,7.574 14.504,14.496 0.984,3.227 1.336,6.742 0.371,9.949 -0.625,2.086 -1.777,3.961 -3.137,5.629 -1.816,2.231 -4.039,4.082 -6.504,5.504 1.356,2.184 2.907,4.242 4.633,6.145 -4.992,1.91 -9.98,3.824 -14.973,5.734 -1.101,-2.867 -2.203,-5.734 -3.308,-8.602 -1.5,-0.086 -2.996,-0.296 -4.461,-0.679 -8.86,-2.297 -16.203,-10.059 -18.18,-19.207 -0.926,-4.286 -0.75,-8.715 -0.535,-13.086" /><path
         id="path32"
         style="fill:#1a3151;fill-opacity:1;fill-rule:nonzero;stroke:none"
         d="m 936.941,310.027 33.457,-3.976 6.497,25.558 9.449,-7.5 -4.871,-41.82 -47.219,-1.016 -20.445,11.997 0.867,12.019 18.281,12.305 3.984,-7.567" /><path
         id="path34"
         style="fill:#ffffff;fill-opacity:1;fill-rule:nonzero;stroke:none"
         d="m 949.93,352.293 39.738,-15.766 c 0,0 14.121,35.082 30.184,91.278 16.046,56.195 -7.461,127.726 -7.461,127.726 0,0 -81.442,-40.242 -99.621,-43.808 l 13.203,-84.118 23.957,-75.312" /><path
         id="path36"
         style="fill:#c8d6a1;fill-opacity:1;fill-rule:nonzero;stroke:none"
         d="m 1020.449,429.004 c -16.058,-56.195 -29.961,-91.336 -29.961,-91.336 l -39.961,15.824 -0.062,0.203 c 0.879,2.297 1.801,4.578 2.597,6.907 3.145,9.187 5.473,18.644 6.903,28.25 2.512,16.886 2.773,34.246 2.234,51.289 -0.515,16.347 -2.203,32.664 -5.105,48.765 -3.84,21.282 -9.965,42.02 -17.856,62.09 36.965,7.512 80.473,16.395 80.473,16.395 0,0 16.801,-82.192 0.738,-138.387" /><path
         id="path38"
         style="fill:#c8d6a1;fill-opacity:1;fill-rule:nonzero;stroke:none"
         d="m 987.133,347.621 31.648,-19.613 -5.89,-53.852 14.031,-5.429 23.078,61.543 -4.52,9.953 -43.378,41.855 -14.969,-34.457" /><path
         id="path40"
         style="fill:#c8d6a1;fill-opacity:1;fill-rule:nonzero;stroke:none"
         d="m 914.113,413.48 3.957,-46.96 h -19.234 l -14.707,64.5 10.18,19.8 16.379,-8.004 3.425,-29.336" /><path
         id="path42"
         style="fill:#efbfa5;fill-opacity:1;fill-rule:nonzero;stroke:none"
         d="m 901.102,366.52 v -15.84 l 11.878,-4.524 10.75,8.485 v 7.355 l -7.921,4.524 h -14.707" /><path
         id="path44"
         style="fill:#efbfa5;fill-opacity:1;fill-rule:nonzero;stroke:none"
         d="m 1026.25,268.738 2.309,-19.597 -21.297,-9.098 -3.961,9.055 10.027,14.734 2.434,8.969 10.488,-4.063" /><path
         id="path46"
         style="fill:#1a3151;fill-opacity:1;fill-rule:nonzero;stroke:none"
         d="m 113.637,707.898 -0.867,7.981 15.101,9.711 8.844,-7.121 -7.117,-8.844 -15.102,-9.707 -0.859,7.98" /><path
         id="path48"
         style="fill:#1a3151;fill-opacity:1;fill-rule:nonzero;stroke:none"
         d="m 149.863,705.961 -0.863,7.98 15.102,9.707 8.843,-7.117 -7.121,-8.843 -15.097,-9.708 -0.864,7.981" /><path
         id="path50"
         style="fill:#9ea6ad;fill-opacity:1;fill-rule:nonzero;stroke:none"
         d="m 85.258,553.543 16.094,71.492 9.89,84.184 18.481,-1.731 7.507,-204.363 -49.472,0.898 -2.5,49.52" /><path
         id="path52"
         style="fill:#9ea6ad;fill-opacity:1;fill-rule:nonzero;stroke:none"
         d="m 179.984,549.172 2.078,69.398 -13.8,88.918 -19.262,-2.011 -2.645,-91.903 -13.738,-62.988 -4.609,-41.231 41.191,-4.859 10.785,44.676" /><path
         id="path54"
         style="fill:#b5d6ca;fill-opacity:1;fill-rule:nonzero;stroke:none"
         d="m 147.398,362.465 -44.378,-1.059 -25.731,47.852 9.149,44.82 1.628,53.637 63.301,0.863 30.695,-4.98 -9.867,-59.766 -2.359,-72.5 -22.438,-8.867" /><path
         id="path56"
         style="fill:#b97262;fill-opacity:1;fill-rule:nonzero;stroke:none"
         d="m 98.742,476.496 -0.242,7.484 13.215,4.809 7.613,-5.769 0.004,-8.711 -7.352,-0.411 -0.23,-1.918 -2.406,-1.546 -10.602,6.062" /><path
         id="path58"
         style="fill:#b5d6ca;fill-opacity:1;fill-rule:nonzero;stroke:none"
         d="M 101.551,364.707 52.402,421.246 50,446.012 l 48.477,38.269 8.699,-12.586 -31.352,-33.476 30.371,-29.735 -4.644,-43.777" /><path
         id="path60"
         style="fill:#b97262;fill-opacity:1;fill-rule:nonzero;stroke:none"
         d="m 144.621,325.285 c -6.691,-19.453 -32.367,-12.164 -37.66,5.156 -3.453,11.297 5.269,25.957 16.977,29.204 0.05,0.441 0.089,0.859 0.089,1.21 0.008,1.813 0.231,3.602 0.5,5.415 0.102,0.675 10.344,-1.293 11.489,-1.52 0.398,-0.078 0.843,-0.188 1.058,-0.523 0.414,-0.641 -0.258,-2.536 -0.332,-3.25 -0.09,-0.844 -0.176,-1.688 -0.265,-2.532 5.773,-2.82 9.418,-8.82 10.433,-14.933 1.024,-6.141 -0.281,-12.383 -2.289,-18.227" /><path
         id="path62"
         style="fill:#3ababa;fill-opacity:1;fill-rule:nonzero;stroke:none"
         d="m 116.148,362.211 13.766,19.457 6.473,-0.527 10.789,-19.735 -31.028,0.805" /><path
         id="path64"
         style="fill:#1a3151;fill-opacity:1;fill-rule:nonzero;stroke:none"
         d="m 174.945,311.457 c 0.77,-1.316 1.598,-2.594 2.532,-3.789 2.019,-2.598 4.531,-4.84 6.14,-7.711 1.613,-2.867 2.121,-6.727 0.067,-9.297 -1.325,-1.66 -3.438,-2.461 -5.485,-3.015 -6.754,-1.84 -13.996,-1.829 -20.742,0.031 -6.426,1.773 -12.148,4.613 -18.699,2.316 -6.153,-2.156 -10.547,-1.14 -16.883,1.266 -6.859,2.605 -16.121,3.371 -22.305,6.976 -2.582,1.508 -4.617,3.821 -6.191,6.36 -5.453,8.804 -5.242,20.789 0.516,29.394 1.289,1.93 2.824,3.688 4.433,5.364 3.328,3.468 7.317,7.757 11.824,8.976 0.028,-4.012 -3.879,-16.586 -0.867,-19.933 4.785,-5.317 15.871,-3.719 21.961,-2.555 6.641,1.265 12.633,5.832 19.207,6.703 4.735,0.625 10.711,-1.813 14.676,-4.332 4.887,-3.109 7.016,-11.938 9.816,-16.754" /><path
         id="path66"
         style="fill:#b97262;fill-opacity:1;fill-rule:nonzero;stroke:none"
         d="m 221.699,283.418 -0.629,-16.297 -6.976,-0.035 -5.332,9.707 2.234,13.883 7.25,1.015 3.453,-8.273" /><path
         id="path68"
         style="fill:#b5d6ca;fill-opacity:1;fill-rule:nonzero;stroke:none"
         d="m 147.176,361.406 49.457,-26.758 14.363,-43.972 9.684,0.594 5.164,50.894 -59.672,67.199 -18.996,-47.957" /><path
         id="path70"
         style="fill:#efbfa5;fill-opacity:1;fill-rule:nonzero;stroke:none"
         d="m 450.359,319.938 -2.168,-10.208 10.743,-16.812 c 0,0 5.902,0.773 7.336,-0.055 1.437,-0.828 6.597,13.516 6.597,13.516 l -10.258,9.672 -12.25,3.887" /><path
         id="path72"
         style="fill:#c8d6a1;fill-opacity:1;fill-rule:nonzero;stroke:none"
         d="m 388.676,360.094 28.597,7.613 30.512,-61.375 13.949,11.309 -16.906,73.457 -14.762,14.433 -48.839,-8.558 7.449,-36.879" /><path
         id="path74"
         style="fill:#1a3151;fill-opacity:1;fill-rule:nonzero;stroke:none"
         d="m 417.688,471.539 1.191,103.027 -10.981,132.629 h -14.925 l -17.864,-122.363 -20.429,-122.57 63.008,9.277" /><path
         id="path76"
         style="fill:#1a3151;fill-opacity:1;fill-rule:nonzero;stroke:none"
         d="m 393.059,713.488 16.14,8.074 8.074,-8.074 -8.074,-8.07 h -16.14 v 8.07" /><path
         id="path78"
         style="fill:#1a3151;fill-opacity:1;fill-rule:nonzero;stroke:none"
         d="m 315.336,471.539 -0.293,59.606 10.066,176.05 h 14.93 l 24.973,-116.828 13.332,-128.105 -63.008,9.277" /><path
         id="path80"
         style="fill:#1a3151;fill-opacity:1;fill-rule:nonzero;stroke:none"
         d="m 339.953,713.488 -16.144,8.074 -8.071,-8.074 8.071,-8.07 h 16.144 v 8.07" /><path
         id="path82"
         style="fill:#c8d6a1;fill-opacity:1;fill-rule:nonzero;stroke:none"
         d="m 299.809,507.43 c -0.317,9.457 -0.114,22.105 3.871,22.578 0.742,0.09 1.461,-0.242 2.117,-0.559 6.926,-3.363 11.859,-8.121 18.687,-11.371 7.153,-3.402 15.282,-5.187 23.227,-6.418 11.851,-1.89 23.894,-3.027 35.82,-3.137 10.25,-0.089 20.91,4.586 30.602,7.161 3.73,0.988 6.765,3.707 9.863,5.839 4.578,3.149 6.582,4.395 5.957,-2.039 -1.015,-10.5 -2.074,-20.992 -3.363,-31.461 -2.578,-20.882 -6.086,-41.711 -12.02,-61.925 -2.265,-7.719 -4.879,-15.336 -7.492,-22.946 -3.183,-9.269 -6.367,-18.539 -9.551,-27.808 -3.953,-11.52 -10.629,-19.633 -22.32,-23.664 -10.105,-3.481 -22.652,-4.434 -32.48,0.441 -10.922,5.418 -16.118,23.879 -21.426,33.742 -4.649,8.649 -10.512,32.227 -12.25,41.547 -2.098,11.219 -4.031,22.383 -5.555,33.52 -1.687,12.332 -2.879,24.629 -3.223,36.851 -0.039,1.352 -0.308,5.133 -0.464,9.649" /><path
         id="path84"
         style="fill:#f7f7f7;fill-opacity:1;fill-rule:nonzero;stroke:none"
         d="m 353.77,353.75 20.175,0.191 c 0,0 21.649,75.653 22.446,88.692 0.781,12.801 6.25,64.703 6.25,64.703 0,0 -22.34,0.527 -48.086,3.66 -25.164,5.387 -27.282,2.203 -27.282,2.203 0,0 13.582,-54.551 14.036,-70.222 C 341.77,426.945 343.82,374 343.82,374 l 9.95,-20.25" /><path
         id="path86"
         style="fill:#efbfa5;fill-opacity:1;fill-rule:nonzero;stroke:none"
         d="m 366.004,354.141 c -0.234,0.207 -0.508,0.371 -0.824,0.472 -0.625,0.207 -1.309,0.133 -1.961,0.055 -2.668,-0.316 -5.34,-0.633 -8.008,-0.949 0.883,-8.172 -3.895,-10.02 -8.551,-15.278 -4.719,-5.328 -3.265,-12.511 -3.004,-19.031 0.078,-1.816 0.168,-3.687 0.934,-5.336 1.348,-2.89 4.484,-4.488 7.531,-5.433 7.774,-2.414 16.664,-1.821 23.508,2.586 1.82,1.171 3.519,2.644 4.508,4.574 1.519,2.972 1.136,6.519 0.711,9.836 -0.653,5.09 -2.16,10.093 -5.039,14.383 -2.684,4 -7.797,5.914 -8.383,10.71 -0.153,1.243 -0.528,2.637 -1.422,3.411" /><path
         id="path88"
         style="fill:#1a3151;fill-opacity:1;fill-rule:nonzero;stroke:none"
         d="m 380.621,319.715 c -0.453,2.055 -1.41,4.133 -0.91,6.176 3.262,-1.11 5.394,-4.446 6.547,-7.836 0.523,-1.535 0.906,-3.164 0.773,-4.789 -0.133,-1.629 -0.84,-3.262 -2.121,-4.184 -1.793,-1.281 -5.008,-0.777 -5.519,1.547 -0.52,2.344 1.914,5.996 1.23,9.086" /><path
         id="path90"
         style="fill:#1a3151;fill-opacity:1;fill-rule:nonzero;stroke:none"
         d="m 397.941,301.676 c -0.078,-2.461 -1.015,-4.656 -3.214,-6.145 -1.895,-1.277 -4.082,-2.34 -5.235,-4.375 -0.89,-1.582 -1.023,-3.535 -1.91,-5.121 -1.602,-2.867 -5.086,-3.715 -8.113,-4.687 -7.574,-2.43 -11.653,-5.243 -19.676,-2.125 -5.707,2.215 -13.078,2.511 -18.371,5.742 -2.211,1.347 -4.094,3.515 -5.637,5.93 -5.351,8.363 -6.633,20.121 -3.148,28.843 0.777,1.953 1.769,3.75 2.828,5.469 2.117,3.438 4.387,7.664 8.137,9.348 0.238,-1.617 1.445,-2.512 1.82,-4.106 0.273,-1.144 0.18,-2.344 0.121,-3.523 -0.231,-4.586 -1.637,-11.84 2.941,-14.114 5.793,-2.874 16.657,-0.281 22.239,2.153 4.933,2.156 13.261,4.957 18.523,2.648 4.887,-2.14 8.859,-10.679 8.695,-15.937" /><path
         id="path92"
         style="fill:#145566;fill-opacity:1;fill-rule:nonzero;stroke:none"
         d="m 330.691,554.34 c 0,-95.949 77.782,-173.735 173.735,-173.735 95.949,0 173.73,77.786 173.73,173.735 0,95.953 -77.781,173.734 -173.73,173.734 -95.953,0 -173.735,-77.781 -173.735,-173.734" /><path
         id="path94"
         style="fill:#ffffff;fill-opacity:1;fill-rule:nonzero;stroke:none"
         d="m 591.465,641.383 c -17.11,17.105 -38.375,28.551 -61.512,33.406 5.887,-5.695 12.692,-12.977 19.512,-21.762 10.734,-13.816 19.293,-28.535 25.441,-43.742 1.559,-3.859 2.957,-7.75 4.203,-11.668 h 40.61 c -6.086,16.238 -15.625,31.133 -28.254,43.766 z m -174.078,0 C 404.754,628.75 395.215,613.855 389.129,597.617 h 42.43 c 1.25,3.918 2.644,7.809 4.203,11.668 6.148,15.207 14.711,29.926 25.441,43.742 7.012,9.028 14,16.457 19.996,22.223 -24.031,-4.562 -46.14,-16.191 -63.812,-33.867 z M 386.535,518.742 h 40.887 c -2.184,10.211 -3.293,20.696 -3.293,31.379 0,11.356 1.238,22.629 3.703,33.723 h -42.957 c -2.336,-9.543 -3.543,-19.43 -3.543,-29.504 0,-12.235 1.777,-24.199 5.203,-35.598 z m 30.852,-51.441 c 16.953,-16.953 37.984,-28.344 60.879,-33.278 -5.243,4.653 -11.043,10.364 -16.856,17.157 -10.801,12.632 -19.414,26.422 -25.601,40.988 -1.786,4.199 -3.356,8.473 -4.735,12.801 h -39.472 c 6.078,-13.875 14.75,-26.637 25.785,-37.668 z m 174.078,0 c 11.031,11.031 19.707,23.793 25.781,37.668 h -37.652 c -1.375,-4.328 -2.949,-8.602 -4.735,-12.801 -6.183,-14.566 -14.797,-28.356 -25.597,-40.988 -5.586,-6.532 -11.16,-12.055 -16.242,-16.602 21.949,5.199 42.093,16.371 58.445,32.723 z m -8.215,51.441 h 39.062 c 3.426,11.399 5.204,23.363 5.204,35.598 0,10.074 -1.207,19.961 -3.543,29.504 h -41.137 c 2.465,-11.094 3.707,-22.367 3.707,-33.723 0,-10.683 -1.109,-21.168 -3.293,-31.379 z m -71.938,65.102 v -65.102 h 57.821 c 2.41,10.172 3.637,20.66 3.637,31.379 0,11.363 -1.372,22.641 -4.079,33.723 z m 0,89.218 v -75.445 h 53.278 c -0.735,2.094 -1.516,4.176 -2.352,6.25 -5.625,13.988 -13.492,27.567 -23.375,40.36 -10.418,13.48 -20.937,23.261 -27.551,28.835 z m -13.777,-75.445 v 73.903 c -6.551,-5.684 -16,-14.766 -25.453,-26.938 -9.953,-12.816 -17.879,-26.43 -23.551,-40.461 -0.871,-2.156 -1.687,-4.324 -2.457,-6.504 z m 0,-161.515 v 68.867 h -51.93 c 0.856,-2.403 1.77,-4.781 2.762,-7.133 5.582,-13.231 13.383,-25.785 23.188,-37.324 9.648,-11.352 19.383,-19.496 25.98,-24.41 z m 41.258,24.031 c 9.887,11.558 17.754,24.148 23.391,37.418 1.039,2.445 1.992,4.922 2.878,7.418 h -53.75 v -70.215 c 6.45,4.633 16.958,13.078 27.481,25.379 z m -100.891,89.988 c 0,-10.715 1.227,-21.207 3.637,-31.379 h 55.996 v 65.102 H 441.98 c -2.71,-11.082 -4.078,-22.36 -4.078,-33.723 z m 192.629,-49.059 c -6.894,-16.296 -16.761,-30.933 -29.328,-43.5 -12.566,-12.566 -27.203,-22.433 -43.504,-29.328 -16.875,-7.14 -34.801,-10.757 -53.273,-10.757 -18.477,0 -36.403,3.617 -53.278,10.757 -16.3,6.895 -30.937,16.762 -43.503,29.328 -12.567,12.567 -22.434,27.204 -29.329,43.5 -7.14,16.879 -10.757,34.805 -10.757,53.278 0,18.476 3.617,36.398 10.757,53.277 6.895,16.301 16.762,30.938 29.329,43.504 12.566,12.567 27.203,22.434 43.503,29.328 16.875,7.141 34.801,10.758 53.278,10.758 18.472,0 36.398,-3.617 53.273,-10.758 16.301,-6.894 30.938,-16.761 43.504,-29.328 12.567,-12.566 22.434,-27.203 29.328,-43.504 7.141,-16.879 10.758,-34.801 10.758,-53.277 0,-18.473 -3.617,-36.399 -10.758,-53.278" /><path
         id="path96"
         style="fill:#efbfa5;fill-opacity:1;fill-rule:nonzero;stroke:none"
         d="m 344.473,478.672 -4.672,5.914 7.82,11.793 9.613,-0.117 5.215,-7.051 -5.707,-4.727 0.957,-1.687 -1.019,-2.695 -12.207,-1.43" /><path
         id="path98"
         style="fill:#c8d6a1;fill-opacity:1;fill-rule:nonzero;stroke:none"
         d="m 337.18,356.371 -37.473,22.852 -20.746,38.949 5.449,30.762 56.149,38.898 10.566,-9.238 -37.539,-47.453 1.457,-29.989 22.137,-44.781" /><path
         id="path100"
         style="fill:#b97262;fill-opacity:1;fill-rule:nonzero;stroke:none"
         d="m 685.027,394.672 -8.465,-6.102 -19.718,3.047 c 0,0 -1.672,5.715 -3.008,6.695 -1.336,0.981 8.391,4.946 8.391,4.946 l 14.3,1.054 8.5,-9.64" /><path
         id="path102"
         style="fill:#1a3151;fill-opacity:1;fill-rule:nonzero;stroke:none"
         d="m 794.57,696.875 c 1.379,-1.52 2.992,-2.348 4.813,-2.063 1.75,0.278 3.32,1.461 4.043,3.047 0.488,1.079 0.594,2.286 0.691,3.465 0.504,6.102 0.457,20.586 -7.668,22.672 -3.418,0.875 -6.242,-1.551 -7.152,-4.617 -1.375,-4.621 0.66,-17.422 5.273,-22.504" /><path
         id="path104"
         style="fill:#b97262;fill-opacity:1;fill-rule:nonzero;stroke:none"
         d="m 791.68,604.828 0.425,37.219 c -0.496,16.531 2.086,33.152 1.59,49.683 -0.113,3.801 -1.101,7.813 -0.144,11.579 0.937,3.687 3.929,4.339 7.004,2.472 4.121,-2.5 3.457,-8.34 4.14,-12.601 1.887,-11.703 4.094,-23.356 6.063,-35.047 0.965,-5.735 -1.024,-13.766 -0.59,-19.567 l 6.012,-31.191 -24.5,-2.547" /><path
         id="path106"
         style="fill:#9ea6ad;fill-opacity:1;fill-rule:nonzero;stroke:none"
         d="m 834.203,544.695 -16.199,71.953 -3.442,67.95 -25.683,-0.578 -6.984,-190.059 49.789,0.902 2.519,49.832" /><path
         id="path108"
         style="fill:#1a3151;fill-opacity:1;fill-rule:nonzero;stroke:none"
         d="m 757.836,695.523 c 1.437,-1.437 3.082,-2.171 4.883,-1.781 1.73,0.379 3.246,1.656 3.898,3.285 0.442,1.114 0.496,2.325 0.543,3.512 0.242,6.133 -0.426,20.629 -8.613,22.238 -3.442,0.672 -6.156,-1.922 -6.934,-5.043 -1.172,-4.707 1.403,-17.398 6.223,-22.211" /><path
         id="path110"
         style="fill:#b97262;fill-opacity:1;fill-rule:nonzero;stroke:none"
         d="m 771.371,610.055 -2.18,37.156 c -0.175,10.324 -1.55,20.57 -2.621,30.824 -0.992,9.527 0.551,19.449 -4.425,28.117 -1.563,2.715 -4.719,4.524 -6.922,1.223 -1.7,-2.543 -0.692,-6.785 -1.02,-9.672 -1.328,-11.781 -2.988,-23.523 -4.402,-35.293 -0.692,-5.769 1.672,-13.703 1.511,-19.519 l -4.535,-31.434 24.594,-1.402" /><path
         id="path112"
         style="fill:#9ea6ad;fill-opacity:1;fill-rule:nonzero;stroke:none"
         d="m 738.871,540.297 -2.09,69.844 10.961,70.629 26.125,0.785 -1.152,-76.442 13.824,-63.39 4.641,-41.493 -41.453,-4.89 -10.856,44.957" /><path
         id="path114"
         style="fill:#ebb044;fill-opacity:1;fill-rule:nonzero;stroke:none"
         d="m 771.664,352.402 44.66,-1.066 25.895,48.156 -9.203,45.11 -1.641,53.976 -63.703,0.871 -20.965,-3.402 5.566,-57.676 -3.191,-77.047 22.582,-8.922" /><path
         id="path116"
         style="fill:#ebb044;fill-opacity:1;fill-rule:nonzero;stroke:none"
         d="m 817.805,354.656 36.254,55.219 -5.45,30.762 -56.148,38.894 -10.566,-9.234 37.539,-47.453 -1.457,-29.989 -0.172,-38.199" /><path
         id="path118"
         style="fill:#ebb044;fill-opacity:1;fill-rule:nonzero;stroke:none"
         d="m 769.43,381.582 -23.262,46.504 -25.082,4.984 -51.715,-29.758 10.777,-12.226 46.215,12.902 22.719,-42.664 20.348,20.258" /><path
         id="path120"
         style="fill:#b97262;fill-opacity:1;fill-rule:nonzero;stroke:none"
         d="m 774.461,314.984 c 6.73,-19.574 32.574,-12.242 37.902,5.188 3.473,11.371 -5.308,26.125 -17.086,29.39 -0.054,0.446 -0.093,0.864 -0.093,1.219 -0.008,1.824 -0.235,3.625 -0.504,5.449 -0.102,0.68 -10.41,-1.3 -11.559,-1.527 -0.402,-0.082 -0.851,-0.187 -1.07,-0.527 -0.414,-0.649 0.261,-2.555 0.336,-3.274 0.09,-0.847 0.179,-1.699 0.269,-2.547 -5.812,-2.835 -9.476,-8.875 -10.504,-15.027 -1.027,-6.18 0.286,-12.465 2.309,-18.344" /><path
         id="path122"
         style="fill:#1a3151;fill-opacity:1;fill-rule:nonzero;stroke:none"
         d="m 791.32,297.297 c 1.383,1.406 1.93,3.367 2.328,5.25 0.239,1.125 0.446,2.289 0.204,3.406 -0.961,4.442 -5.368,4.211 -8.774,5.641 -4.203,1.765 -7.828,5.019 -10.183,8.765 -3.684,5.864 -2.028,13.411 -0.532,19.879 0.528,2.278 1.586,5.668 -0.179,7.7 -1.797,2.066 -5.95,1.75 -8.102,0.683 -1.965,-0.969 -3.582,-2.766 -5.738,-3.129 -2.285,-0.383 -5.375,0.625 -6.438,-1.472 -0.297,-0.582 -0.324,-1.297 -0.699,-1.832 -1.262,-1.805 -4.398,0.308 -6.18,-0.961 -1.093,-0.786 -1.086,-2.454 -0.715,-3.774 0.368,-1.316 0.993,-2.656 0.735,-4 -0.223,-1.152 -1.055,-2.066 -1.57,-3.113 -1.016,-2.074 -0.665,-4.778 0.847,-6.528 2.817,-3.253 8.258,-2.636 11.274,-5.699 1.57,-1.597 2.179,-3.898 2.765,-6.074 0.586,-2.18 1.289,-4.477 2.969,-5.953 2.07,-1.82 5.066,-1.512 7.113,-3.676 1.203,-1.269 2.004,-2.922 3.352,-4.027 1.777,-1.457 5.258,-2.578 7.469,-3.321 3.507,-1.179 7.429,-0.429 10.054,2.235" /><path
         id="path124"
         style="fill:#1a3151;fill-opacity:1;fill-rule:nonzero;stroke:none"
         d="m 807.664,328.531 c 0.121,6.446 -3.078,13.41 -0.109,19.078 2.992,5.727 10.461,6.758 16.824,7.055 1.047,0.051 14.476,1.207 14.531,0.953 1.004,-4.484 2.047,-9.062 4.391,-13.004 2.347,-3.941 6.265,-7.203 10.758,-7.484 -1.297,-0.227 -1.95,-1.813 -1.797,-3.149 0.148,-1.335 0.84,-2.542 1.242,-3.828 0.984,-3.16 0.023,-6.843 -2.356,-9.062 -4.75,-4.426 -13.363,-2.59 -17.437,-7.672 -2.523,-3.156 -2.223,-7.73 -3.547,-11.578 -2.559,-7.445 -10.707,-9.004 -16.801,-12.363 -6.429,-3.551 -12.484,-5.497 -19.906,-4.258 -9.203,1.531 -16.043,10.898 -12.492,19.715 4.551,11.304 22.746,10.328 26.152,21.808 0.367,1.235 0.524,2.5 0.547,3.789" /><path
         id="path126"
         style="fill:#ffffff;fill-opacity:1;fill-rule:nonzero;stroke:none"
         d="m 803.113,352.145 -13.855,19.582 -6.512,-0.532 -10.855,-19.859 31.222,0.809" /><path
         id="path128"
         style="fill:#b97262;fill-opacity:1;fill-rule:nonzero;stroke:none"
         d="m 788.355,469.988 5.395,5.262 -6.23,12.703 -9.551,1.125 -6.078,-6.32 5.047,-5.422 -1.168,-1.551 0.668,-2.805 11.917,-2.992" /><path
         id="path130"
         style="fill:#145566;fill-opacity:1;fill-rule:nonzero;stroke:none"
         d="m 284.695,239.223 -23.351,-14.059 c -0.52,-0.316 -1.149,-0.406 -1.739,-0.254 -0.589,0.152 -1.093,0.531 -1.398,1.059 -2.047,3.515 -3.93,6.5 -5.605,8.871 -1.618,2.289 -3.102,4.074 -4.407,5.301 -2.261,2.121 -4.832,3.152 -7.859,3.152 -4.375,0 -11.609,-2.016 -21.57,-6.016 -1.844,-0.668 -3.875,-1.402 -6.102,-2.199 -2.191,-0.785 -4.609,-1.633 -7.269,-2.551 2.144,-8.629 3.191,-14.687 3.191,-18.472 0,-3.168 -0.859,-8.274 -2.629,-15.551 h 26.469 c 1.258,0 2.273,-1.02 2.273,-2.277 v -20.461 c 0,-1.258 -1.015,-2.274 -2.273,-2.274 h -36.465 c -0.055,-0.097 -0.106,-0.191 -0.152,-0.277 -0.223,-0.399 -0.426,-0.738 -0.606,-1.016 -8.613,-15.449 -12.98,-27.387 -12.98,-35.48 0,-9.672 2.984,-17.36 9.136,-23.508 6.141,-6.223 13.786,-9.242 23.368,-9.242 12.902,0 21.683,5.047 26.843,15.449 2.672,5.266 4.024,14.801 4.024,28.352 0,0.742 0.367,1.441 0.976,1.867 0.614,0.422 1.391,0.523 2.09,0.261 l 28.746,-10.668 c 0.895,-0.332 1.485,-1.183 1.485,-2.132 0,-19.036 -6.094,-34.782 -18.098,-46.786 -11.941,-12.203 -27.398,-18.386 -45.941,-18.386 -18.418,0 -34.395,6.117 -47.5,18.187 -12.977,12.114 -19.555,26.989 -19.555,44.223 0,10.973 3.633,24.133 10.805,39.156 h -19.079 c -1.253,0 -2.273,1.016 -2.273,2.274 v 20.461 c 0,1.257 1.02,2.277 2.273,2.277 h 31.758 c 2.328,4.715 3.508,9.601 3.508,14.547 0,4.726 -0.84,10.062 -2.5,15.879 -8.66,1.175 -15.762,3.929 -21.09,8.175 -4.863,3.715 -11.121,11.758 -19.129,24.583 -0.336,0.542 -0.433,1.203 -0.261,1.816 0.171,0.613 0.597,1.129 1.168,1.418 l 25.109,12.68 c 0.32,0.16 0.672,0.242 1.023,0.242 0.246,0 0.496,-0.039 0.735,-0.121 0.582,-0.2 1.054,-0.621 1.316,-1.172 3.188,-6.692 6.02,-11.071 8.422,-13.024 2.25,-1.828 5.441,-2.757 9.488,-2.757 5.297,0 14.907,2.656 28.641,7.914 14.769,5.066 25.523,7.531 32.875,7.531 10.164,0 18.902,-2.688 25.953,-7.977 6.891,-5.058 13.301,-13.84 19.043,-26.101 0.492,-1.055 0.113,-2.313 -0.887,-2.914" /><path
         id="path132"
         style="fill:#145566;fill-opacity:1;fill-rule:nonzero;stroke:none"
         d="m 1047.828,276.727 c 1.012,-0.422 1.582,-1.504 1.352,-2.579 l -6.039,-28.246 c -0.153,-0.707 -0.629,-1.297 -1.282,-1.597 -0.66,-0.297 -1.418,-0.262 -2.05,0.09 -1.829,1.023 -3.637,1.925 -5.45,2.714 -6.66,3.246 -14.929,4.887 -24.558,4.887 -19.633,0 -33.321,-5.656 -45.77,-18.914 -4.105,-4.375 -7.613,-9.172 -10.453,-14.289 h 48.774 c 1.257,0 2.277,-1.02 2.277,-2.277 v -25.332 c 0,-1.254 -1.02,-2.274 -2.277,-2.274 h -57.465 c -0.196,-2.39 -0.289,-4.601 -0.289,-6.715 0,-2.597 0.136,-5.257 0.433,-8.25 h 57.321 c 1.257,0 2.277,-1.019 2.277,-2.273 v -25.336 c 0,-1.254 -1.02,-2.274 -2.277,-2.274 h -48.231 c 2.734,-4.808 6.063,-9.351 9.934,-13.546 12.394,-13.598 26.039,-19.403 45.625,-19.403 7.422,0 14.871,1.367 22.14,4.071 1.11,0.414 2.36,-0.106 2.86,-1.188 l 11.398,-25.023 c 0.262,-0.559 0.274,-1.196 0.051,-1.766 -0.219,-0.57 -0.66,-1.031 -1.231,-1.269 -10.918,-4.637 -20.289,-7.512 -33.257,-7.512 -32.301,0 -56.446,11.219 -75.981,35.316 -7.59,9.406 -13.48,19.602 -17.523,30.32 h -22.832 c -1.258,0 -2.278,1.02 -2.278,2.274 v 25.336 c 0,1.254 1.02,2.273 2.278,2.273 h 16.359 c -0.234,3.035 -0.352,5.836 -0.352,8.504 0,2.278 0.098,4.504 0.219,6.461 h -16.226 c -1.258,0 -2.278,1.02 -2.278,2.274 v 25.332 c 0,1.257 1.02,2.277 2.278,2.277 h 22.101 c 4.852,13.719 12.59,26.199 23.039,37.125 18.836,19.453 40.758,28.512 68.996,28.512 13.149,0 26.059,-2.594 38.387,-7.703" /><path
         id="path134"
         style="fill:#5bbcb9;fill-opacity:1;fill-rule:nonzero;stroke:none"
         d="M 497.238,319.715 V 254.32 h 53.594 c 1.254,0 2.273,-1.015 2.273,-2.273 v -20.59 c 0,-1.254 -1.019,-2.273 -2.273,-2.273 h -49.488 l 9.269,-16.668 h 40.219 c 1.254,0 2.273,-1.02 2.273,-2.274 v -20.59 c 0,-1.257 -1.019,-2.273 -2.273,-2.273 h -26.406 l 33.293,-60.406 c 0.39,-0.703 0.375,-1.563 -0.031,-2.254 -0.411,-0.692 -1.157,-1.117 -1.961,-1.117 h -31.762 c -0.828,0 -1.594,0.453 -1.992,1.175 l -40.684,73.832 -40.324,-73.824 c -0.395,-0.73 -1.16,-1.183 -1.992,-1.183 h -31.762 c -0.805,0 -1.551,0.425 -1.957,1.117 -0.41,0.691 -0.426,1.547 -0.035,2.25 l 33.176,60.41 h -26.29 c -1.253,0 -2.273,1.016 -2.273,2.273 v 20.59 c 0,1.254 1.02,2.274 2.273,2.274 h 40.086 l 9.172,16.668 h -49.258 c -1.253,0 -2.273,1.019 -2.273,2.273 v 20.59 c 0,1.258 1.02,2.273 2.273,2.273 h 53.34 v 65.395 c 0,1.258 1.02,2.273 2.278,2.273 h 27.242 c 1.258,0 2.273,-1.015 2.273,-2.273" /><path
         id="path136"
         style="fill:#9ea6ad;fill-opacity:1;fill-rule:nonzero;stroke:none"
         d="m 701.836,266.945 c -6.219,-3.816 -14.184,-7.937 -23.684,-12.257 -10.632,-4.786 -17.738,-8.922 -21.113,-12.305 -3.258,-3.254 -4.84,-7.25 -4.84,-12.215 0,-5.465 1.973,-9.891 6.039,-13.535 4.133,-3.707 9.231,-5.512 15.582,-5.512 10.289,0 18.45,5.746 24.953,17.567 0.289,0.531 0.782,0.921 1.364,1.089 0.586,0.168 1.207,0.094 1.734,-0.199 l 22.844,-12.769 c 1.097,-0.614 1.488,-1.997 0.879,-3.094 -5.438,-9.746 -11.27,-17.11 -17.332,-21.883 -5.727,-4.5 -13.032,-7.609 -21.742,-9.258 v -21.051 c 0,-1.253 -1.016,-2.273 -2.274,-2.273 h -20.5 c -1.254,0 -2.273,1.02 -2.273,2.273 v 21.219 c -5.825,1.645 -11.149,3.852 -15.852,6.567 -5.191,3.003 -9.625,6.617 -13.176,10.734 -3.558,4.133 -6.316,8.801 -8.199,13.871 -1.883,5.07 -2.836,10.617 -2.836,16.488 0,12.391 4.02,23.188 11.891,32.036 5.031,6.023 15.07,12.355 30.672,19.347 7.234,3.313 13.246,6.406 17.867,9.195 4.57,2.758 8.051,5.243 10.301,7.344 4.351,4.281 6.464,9.844 6.464,17.004 0,8.098 -2.566,14.496 -7.851,19.567 -5.387,5.167 -11.922,7.679 -19.981,7.679 -8.199,0 -14.816,-2.242 -19.593,-6.594 -4.782,-4.781 -8.922,-13.007 -12.313,-24.457 -0.336,-1.136 -1.484,-1.824 -2.644,-1.582 l -25.774,5.391 c -0.597,0.125 -1.117,0.484 -1.445,0.996 -0.332,0.516 -0.442,1.137 -0.305,1.734 3.903,17.133 10.102,30.04 18.414,38.352 8.004,8.008 19.559,13.426 34.36,16.121 v 21.633 c 0,1.254 1.019,2.273 2.273,2.273 h 20.5 c 1.258,0 2.274,-1.019 2.274,-2.273 v -22.523 c 12.851,-3.754 23.32,-10.715 31.144,-20.704 8.25,-10.515 12.434,-22.812 12.434,-36.546 0,-14.04 -4.657,-26.184 -13.813,-36.067 -3.254,-3.664 -8.117,-7.492 -14.449,-11.383" /></g></g></svg>